{"title":"Sherlock Holmes in The Case of the Whitechapel Vampire (2000) Ma","uid":15455762,"size":1795825140,"categoryP":"video","categoryS":"movies","magnet":"?xt=urn:btih:4cbff3ff0757c2365bac221317458c708ff4fe7d&amp;dn=Sherlock+Holmes+in+The+Case+of+the+Whitechapel+Vampire+%282000%29+Ma&amp;tr=udp%3A%2F%2Ftracker.leechers-paradise.org%3A6969&amp;tr=udp%3A%2F%2Fzer0day.ch%3A1337&amp;tr=udp%3A%2F%2Fopen.demonii.com%3A1337&amp;tr=udp%3A%2F%2Ftracker.coppersurfer.tk%3A6969&amp;tr=udp%3A%2F%2Fexodus.desync.com%3A6969","seeders":1,"leechers":0,"uploader":"cjbbaugh","files":1,"time":1469983587,"description":"Sherlock Holmes investigates a series of death rumoured to be caused by a vampire. Matt Frewer stars as Holmes and Kenneth Welsh stars as Watson.\r\n\r\nGeneral\r\nComplete name : Sherlock Holmes in The Case of the Whitechapel Vampire (2000) Matt Frewer.mp4\r\nFormat : MPEG-4\r\nFormat profile : Base Media / Version 2\r\nCodec ID : mp42\r\nFile size : 1.67 GiB\r\nDuration : 1h 28mn\r\nOverall bit rate : 2 719 Kbps\r\nContentType : Unknown Type\r\nEncoded date : UTC 2015-03-21 12:25:38\r\nTagged date : UTC 2015-03-21 12:25:38\r\n\r\nVideo\r\nID : 1\r\nFormat : AVC\r\nFormat/Info : Advanced Video Codec\r\nFormat profile :   \r\nFormat settings, CABAC : No\r\nFormat settings, ReFrames : 1 frame\r\nMuxing mode : Container   \r\nCodec ID : avc1\r\nCodec ID/Info : Advanced Video Coding\r\nDuration : 1h 28mn\r\nBit rate : 2 586 Kbps\r\nWidth : 1 024 pixels\r\nHeight : 600 pixels\r\nDisplay aspect ratio : 1.707\r\nFrame rate mode : Constant\r\nFrame rate : 29.970 fps\r\nOriginal frame rate : 29.000 fps\r\nColor space : YUV\r\nChroma subsampling : 4:2:0\r\nBit depth : 8 bits\r\nScan type : Progressive\r\nBits/(Pixel*Frame) : 0.140\r\nStream size : 1.59 GiB (95%)\r\nWriting library :  `L\bàkL\b@\r\nLanguage : English\r\n\r\nAudio\r\nID : 2\r\nFormat : AAC\r\nFormat/Info : Advanced Audio Codec\r\nFormat profile : LC\r\nCodec ID : 40\r\nDuration : 1h 28mn\r\nBit rate mode : Constant\r\nBit rate : 128 Kbps\r\nChannel(s) : 2 channels\r\nChannel positions : Front: L R\r\nSampling rate : 48.0 KHz\r\nCompression mode : Lossy\r\nStream size : 80.6 MiB (5%)\r\nLanguage : English","torrent":{"xt":"urn:btih:4cbff3ff0757c2365bac221317458c708ff4fe7d","amp;dn":"Sherlock+Holmes+in+The+Case+of+the+Whitechapel+Vampire+%282000%29+Ma","amp;tr":["udp%3A%2F%2Ftracker.leechers-paradise.org%3A6969","udp%3A%2F%2Fzer0day.ch%3A1337","udp%3A%2F%2Fopen.demonii.com%3A1337","udp%3A%2F%2Ftracker.coppersurfer.tk%3A6969","udp%3A%2F%2Fexodus.desync.com%3A6969"],"infoHash":"4cbff3ff0757c2365bac221317458c708ff4fe7d","infoHashBuffer":{"type":"Buffer","data":[76,191,243,255,7,87,194,54,91,172,34,19,23,69,140,112,143,244,254,125]},"announce":[],"urlList":[]}}